<?xml version="1.0" encoding="UTF-8" standalone="no"?><svg xmlns="http://www.w3.org/2000/svg" xmlns:xlink="http://www.w3.org/1999/xlink" width="475.1" height="321.8"><defs><clipPath id="c"><use height="1" width="1" xlink:href="#a" overflow="visible"/></clipPath><clipPath clipPathUnits="userSpaceOnUse" id="d"><path d="M0 124.7h187V0H0v124.7z"/></clipPath><path id="a" d="M0 0h226.5l.2 226.7H.2"/><path id="b" d="M0 0h226.5l.2 226.7H.2"/></defs><rect transform="scale(.54674) rotate(45 7 2.2)" y="-209.4" x="201.5" ry="45.9" height="430" width="430" fill="#e6e6e6"/><path clip-path="url(#c)" d="M10 99.2L99.4 10c7-7 18.4-7 25.5 0l89.5 89.2c7 7 7 18.4 0 25.4l-89.1 89.2c-7 7-18.5 7-25.6 0l-89.5-89.2c-7-7-7-18.4 0-25.4" transform="matrix(1.45399 0 0 1.45399 150.8 -1.8)" fill="#d9151b"/><path d="M349.2 89.6c-3.2 0-5.3-2-5.3-5.2 0-3 2.1-5.1 5.3-5.1 3.2 0 5.3 2 5.3 5.1 0 3.1-2.1 5.2-5.3 5.2zm-89.7 8.7l-.1.7c-.5 2-1 2.9-2.8 2.9-1 0-2.8-.3-4.8-.3-1.7 0-4.2.2-5.8.7v25.5c0 2.2-1 3.1-3.1 3.1h-2.3c-2.3 0-3.2-1-3.2-3.1V99.4c0-2.1 1-3.3 3-4a42.7 42.7 0 0116.5-1.2c1.8.2 2.7 1.2 2.7 2.7l-.1 1.4zm94 29.5c0 2.2-1 3.1-3.2 3.1H348c-2.2 0-3.1-1-3.1-3.1v-30c0-2.2 1-3.2 3.1-3.2h2.3c2.3 0 3.2 1 3.2 3.2zm27-33.9c-11 0-18 6.6-18 18.9 0 12.3 7 18.8 18 18.8 10.8 0 18-6.5 18-18.8s-7.2-18.9-18-18.9zm0 7.4c5.9 0 9.2 4.2 9.2 11.5 0 7.4-3.3 11.4-9.3 11.4-6 0-9.2-4-9.2-11.4 0-7.3 3.3-11.5 9.2-11.5zM330.1 80c-2.2 0-3.2.9-3.2 3.1v11.6a22 22 0 00-6-.8c-11.6 0-18.6 7.2-18.6 19 0 11.6 6.7 18.7 19.7 18.7 3.3 0 8.2-.5 10.6-1.3 1.8-.5 3-1.5 3-3.8V83c0-2.2-1-3.1-3.2-3.1zm-8.3 21.4c1.8 0 3.8.3 5.1.7v21.5c-1.3.4-3.3.7-5 .7-7.6 0-10.8-4.6-10.8-11.5 0-6.8 3.2-11.4 10.7-11.4zm-42.1-7.5c-4 0-9 .7-11.4 1.8-1 .4-2 1.2-2 2.5 0 .4 0 1 .3 1.5l.3.7c.6 1.6 1.3 2.3 2.4 2.3.5 0 1-.2 1.7-.4a23 23 0 017.2-1.3c5.8 0 8 2.6 8 7v1.1c-1.4-.3-4-1-7.7-1-9.3 0-15.5 3.7-15.5 11.8 0 8 6 11.7 16 11.7 4.1 0 10.2-.6 12.7-1.2 1.8-.4 3-1.1 3-3.7v-17.9c0-10.5-5-14.9-15-14.9zm.4 20.6c2.3 0 4.5.3 6.1.8v9.2c-1.6.5-4 .7-6 .7-5.9 0-8.5-1.6-8.5-5.3 0-3.7 2.7-5.4 8.4-5.4z" fill="#fff"/><path d="M175.3 68.8l-8.1 8.1c-4.3 4.3-7.9 4.4-11.7.6l-9.3-9.2c-3.8-3.9-3.7-7.5.6-11.8l8-8c4.4-4.4 8-4.5 11.8-.6L176 57c3.8 3.8 3.7 7.5-.6 11.7zM186 47.3l-9.6-9.5c-9.5-9.6-21-9.7-31.7 1l-7.6 7.6c-10.7 10.7-10.5 22-1 31.6l9.6 9.6c9.5 9.5 21 9.7 31.7-1L185 79c10.7-10.7 10.5-22.1 1-31.7m-48.1 48.1l-9.6-9.5c-9.6-9.6-21-9.7-31.7 1L89 94.5c-10.7 10.6-10.5 22-1 31.6l30.8 30.8c3.6 3.5 7.6 3 10.3.3 2.7-2.7 3.2-6.7-.4-10.2l-7-7.1c1.9-.4 4.3-1.9 7-4.7l8.2-8.1c10.7-10.7 10.5-22.1 1-31.7zm-10.1 9.8c3.8 3.8 3.7 7.5-.6 11.7L119 125c-4.3 4.3-7.9 4.4-11.7.6l-9.3-9.3c-3.8-3.8-3.7-7.4.6-11.7l8-8c4.4-4.4 8-4.5 11.8-.6l9.3 9.2m-28.1 50l-20.4-20.4c-9.5-9.5-21-9.7-31.6 1l-7.7 7.6c-10.6 10.7-10.5 22.1-1 31.7l20.4 20.4c3.6 3.5 7.6 3 10.3.3 2.7-2.8 3.2-6.7-.3-10.3l-20.2-20.2c-3.9-3.8-3.8-7.4.5-11.7l8.1-8c4.3-4.4 8-4.5 11.8-.7l20.2 20.2c3.5 3.6 7.5 3.1 10.2.4 2.7-2.7 3.3-6.7-.3-10.3" fill="#d9151b"/><g clip-path="url(#d)" transform="matrix(3.77041 0 0 -3.77041 -115.9 396.2)"><path d="M123.6 48.9c2.4 0 3.7 1.5 3.7 3.4V63c0 2-1.3 3.4-3.7 3.4H104c-2.4 0-3.6-1.4-3.6-3.3 0-1.8 1.2-3.3 3.6-3.3h15.1c.5 0 .8-.2.8-.9v-2.5c0-.6-.3-1-.8-1h-15c-2.4 0-3.7-1.4-3.7-3.3V41.3c0-1.9 1.3-3.4 3.7-3.4h19.5c2.3 0 3.6 1.5 3.6 3.3 0 1.8-1.3 3.3-3.6 3.3h-15.1c-.5 0-.8.3-.8.9V48c0 .6.3.9.8.9h15z" fill="#fff"/></g></svg>