<svg width="347.101" height="78.701" viewBox="0 0 347.101 78.701" xmlns="http://www.w3.org/2000/svg"><g id="svgGroup" stroke-linecap="round" fill-rule="nonzero" font-size="9pt" stroke="#4e95f7" stroke-width="0.25mm" fill="#4e95f7" style="stroke:#4e95f7;stroke-width:0.25mm;fill:#4e95f7"><path d="M 242.2 34.2 L 242.2 3 A 3.713 3.713 0 0 1 242.31 2.071 A 2.596 2.596 0 0 1 243.05 0.8 Q 243.9 0 245.2 0 Q 246.6 0 247.4 0.8 A 2.646 2.646 0 0 1 248.106 2.109 A 3.969 3.969 0 0 1 248.2 3 L 248.2 51.3 A 28.897 28.897 0 0 1 246.669 60.425 A 26.168 26.168 0 0 1 244.4 65.3 Q 240.7 71.5 234.45 75.1 A 27.154 27.154 0 0 1 222.729 78.612 A 33.077 33.077 0 0 1 220.3 78.7 A 30.079 30.079 0 0 1 211.382 77.413 A 26.624 26.624 0 0 1 205.95 75.05 Q 199.6 71.4 195.95 65.05 A 27.602 27.602 0 0 1 192.389 53.16 A 33.476 33.476 0 0 1 192.3 50.7 A 30.004 30.004 0 0 1 193.52 42.018 A 26.242 26.242 0 0 1 195.95 36.4 Q 199.6 30.1 205.95 26.45 A 27.602 27.602 0 0 1 217.84 22.889 A 33.476 33.476 0 0 1 220.3 22.8 A 28.708 28.708 0 0 1 228.327 23.889 A 25.02 25.02 0 0 1 233.25 25.9 A 24.017 24.017 0 0 1 239.826 31.014 A 22.271 22.271 0 0 1 242.2 34.2 Z M 220.3 73.1 A 22.99 22.99 0 0 0 227.219 72.087 A 20.303 20.303 0 0 0 231.55 70.15 Q 236.5 67.2 239.35 62.15 A 22.188 22.188 0 0 0 242.1 53.053 A 27.156 27.156 0 0 0 242.2 50.7 A 24.524 24.524 0 0 0 241.311 43.987 A 20.975 20.975 0 0 0 239.35 39.3 Q 236.5 34.3 231.55 31.35 A 21.03 21.03 0 0 0 222.236 28.472 A 25.64 25.64 0 0 0 220.3 28.4 A 22.409 22.409 0 0 0 212.511 29.732 A 20.856 20.856 0 0 0 209.1 31.35 Q 204.1 34.3 201.2 39.3 A 21.597 21.597 0 0 0 198.402 48.349 A 26.631 26.631 0 0 0 198.3 50.7 A 24.192 24.192 0 0 0 199.269 57.649 A 21.149 21.149 0 0 0 201.2 62.15 Q 204.1 67.2 209.1 70.15 A 21.449 21.449 0 0 0 219.53 73.089 A 25.6 25.6 0 0 0 220.3 73.1 Z M 180.3 50.8 L 180.3 75.1 A 3.463 3.463 0 0 1 180.148 76.147 A 2.835 2.835 0 0 1 179.5 77.25 A 2.664 2.664 0 0 1 177.761 78.083 A 3.672 3.672 0 0 1 177.4 78.1 A 3.74 3.74 0 0 1 176.4 77.973 A 2.787 2.787 0 0 1 175.15 77.25 A 2.871 2.871 0 0 1 174.305 75.303 A 3.82 3.82 0 0 1 174.3 75.1 L 174.3 56.8 L 176.2 50.8 L 180.3 50.8 L 177.8 54.8 A 23.638 23.638 0 0 1 176.425 62.938 A 21.847 21.847 0 0 1 174.45 67 Q 171.1 72.4 165.4 75.55 A 25.311 25.311 0 0 1 155.734 78.527 A 31.438 31.438 0 0 1 152.4 78.7 A 30.079 30.079 0 0 1 143.482 77.413 A 26.624 26.624 0 0 1 138.05 75.05 Q 131.7 71.4 128.05 65.05 A 27.679 27.679 0 0 1 124.438 52.389 A 33.217 33.217 0 0 1 124.4 50.8 A 30.079 30.079 0 0 1 125.687 41.882 A 26.624 26.624 0 0 1 128.05 36.45 Q 131.7 30.1 138.05 26.45 A 27.602 27.602 0 0 1 149.94 22.889 A 33.476 33.476 0 0 1 152.4 22.8 A 30.004 30.004 0 0 1 161.082 24.02 A 26.242 26.242 0 0 1 166.7 26.45 Q 173 30.1 176.65 36.45 A 27.602 27.602 0 0 1 180.211 48.34 A 33.476 33.476 0 0 1 180.3 50.8 Z M 152.4 73.1 A 22.99 22.99 0 0 0 159.319 72.087 A 20.303 20.303 0 0 0 163.65 70.15 Q 168.6 67.2 171.45 62.15 A 22.259 22.259 0 0 0 174.253 52.404 A 26.838 26.838 0 0 0 174.3 50.8 A 24.587 24.587 0 0 0 173.348 43.851 A 21.347 21.347 0 0 0 171.45 39.35 Q 168.6 34.3 163.65 31.35 A 21.03 21.03 0 0 0 154.336 28.472 A 25.64 25.64 0 0 0 152.4 28.4 A 22.409 22.409 0 0 0 144.611 29.732 A 20.856 20.856 0 0 0 141.2 31.35 Q 136.2 34.3 133.3 39.35 A 21.958 21.958 0 0 0 130.486 48.64 A 26.812 26.812 0 0 0 130.4 50.8 A 23.531 23.531 0 0 0 131.533 58.187 A 21.259 21.259 0 0 0 133.3 62.15 Q 136.2 67.2 141.2 70.15 A 21.449 21.449 0 0 0 151.63 73.089 A 25.6 25.6 0 0 0 152.4 73.1 Z M 310.282 77.413 A 26.624 26.624 0 0 1 304.85 75.05 Q 298.5 71.4 294.85 65.05 A 27.679 27.679 0 0 1 291.238 52.389 A 33.217 33.217 0 0 1 291.2 50.8 A 30.079 30.079 0 0 1 292.487 41.882 A 26.624 26.624 0 0 1 294.85 36.45 Q 298.5 30.1 304.85 26.45 A 27.602 27.602 0 0 1 316.74 22.889 A 33.476 33.476 0 0 1 319.2 22.8 A 30.004 30.004 0 0 1 327.882 24.02 A 26.242 26.242 0 0 1 333.5 26.45 Q 339.8 30.1 343.45 36.45 A 27.602 27.602 0 0 1 347.011 48.34 A 33.476 33.476 0 0 1 347.1 50.8 A 29.391 29.391 0 0 1 345.602 60.286 A 26.752 26.752 0 0 1 343.45 65.05 Q 339.8 71.4 333.5 75.05 A 27.265 27.265 0 0 1 321.779 78.602 A 33.349 33.349 0 0 1 319.2 78.7 A 30.079 30.079 0 0 1 310.282 77.413 Z M 319.2 73.1 A 22.99 22.99 0 0 0 326.119 72.087 A 20.303 20.303 0 0 0 330.45 70.15 Q 335.4 67.2 338.25 62.15 A 22.188 22.188 0 0 0 341 53.053 A 27.156 27.156 0 0 0 341.1 50.7 Q 341.1 44.4 338.25 39.35 Q 335.4 34.3 330.45 31.35 A 21.03 21.03 0 0 0 321.136 28.472 A 25.64 25.64 0 0 0 319.2 28.4 A 22.409 22.409 0 0 0 311.411 29.732 A 20.856 20.856 0 0 0 308 31.35 Q 303 34.3 300.1 39.35 A 21.958 21.958 0 0 0 297.286 48.64 A 26.812 26.812 0 0 0 297.2 50.8 A 23.531 23.531 0 0 0 298.333 58.187 A 21.259 21.259 0 0 0 300.1 62.15 Q 303 67.2 308 70.15 A 21.449 21.449 0 0 0 318.43 73.089 A 25.6 25.6 0 0 0 319.2 73.1 Z M 0 75.1 L 0 26.4 A 3.713 3.713 0 0 1 0.11 25.471 A 2.596 2.596 0 0 1 0.85 24.2 Q 1.7 23.4 3 23.4 Q 4.4 23.4 5.2 24.2 A 2.646 2.646 0 0 1 5.906 25.509 A 3.969 3.969 0 0 1 6 26.4 L 6 75.1 A 3.463 3.463 0 0 1 5.848 76.147 A 2.835 2.835 0 0 1 5.2 77.25 A 2.635 2.635 0 0 1 3.75 78.031 A 3.872 3.872 0 0 1 3 78.1 A 3.256 3.256 0 0 1 1.917 77.926 A 2.806 2.806 0 0 1 0.85 77.25 A 2.871 2.871 0 0 1 0.005 75.303 A 3.82 3.82 0 0 1 0 75.1 Z M 6 44.7 Q 6 40 8.2 36.35 Q 10.4 32.7 14.3 30.6 Q 18.2 28.5 23.2 28.5 A 25.333 25.333 0 0 1 24.904 28.555 A 19.022 19.022 0 0 1 26.65 28.75 A 9.451 9.451 0 0 0 27.249 28.828 Q 28.419 28.94 29.3 28.7 A 1.662 1.662 0 0 0 30.047 28.274 Q 30.312 28.011 30.485 27.61 A 3.531 3.531 0 0 0 30.7 26.9 Q 31.083 25.137 29.939 24.197 A 3.457 3.457 0 0 0 29.1 23.7 Q 27.648 23.078 25.384 22.886 A 25.929 25.929 0 0 0 23.2 22.8 Q 17.6 22.8 13 25.6 A 20.954 20.954 0 0 0 10.547 27.345 A 22.349 22.349 0 0 0 5.5 33.35 A 24.884 24.884 0 0 0 3.463 37.785 A 29.399 29.399 0 0 0 2 44.7 L 6 44.7 Z M 43.8 75.1 L 43.8 26.4 A 3.713 3.713 0 0 1 43.91 25.471 A 2.596 2.596 0 0 1 44.65 24.2 Q 45.5 23.4 46.8 23.4 Q 48.2 23.4 49 24.2 A 2.646 2.646 0 0 1 49.706 25.509 A 3.969 3.969 0 0 1 49.8 26.4 L 49.8 75.1 A 3.463 3.463 0 0 1 49.648 76.147 A 2.835 2.835 0 0 1 49 77.25 A 2.635 2.635 0 0 1 47.55 78.031 A 3.872 3.872 0 0 1 46.8 78.1 A 3.256 3.256 0 0 1 45.717 77.926 A 2.806 2.806 0 0 1 44.65 77.25 A 2.871 2.871 0 0 1 43.805 75.303 A 3.82 3.82 0 0 1 43.8 75.1 Z M 49.8 44.7 Q 49.8 40 52 36.35 Q 54.2 32.7 58.1 30.6 Q 62 28.5 67 28.5 A 25.333 25.333 0 0 1 68.704 28.555 A 19.022 19.022 0 0 1 70.45 28.75 A 9.451 9.451 0 0 0 71.049 28.828 Q 72.219 28.94 73.1 28.7 A 1.662 1.662 0 0 0 73.847 28.274 Q 74.112 28.011 74.285 27.61 A 3.531 3.531 0 0 0 74.5 26.9 Q 74.883 25.137 73.739 24.197 A 3.457 3.457 0 0 0 72.9 23.7 Q 71.448 23.078 69.184 22.886 A 25.929 25.929 0 0 0 67 22.8 Q 61.4 22.8 56.8 25.6 A 20.954 20.954 0 0 0 54.347 27.345 A 22.349 22.349 0 0 0 49.3 33.35 A 24.884 24.884 0 0 0 47.263 37.785 A 29.399 29.399 0 0 0 45.8 44.7 L 49.8 44.7 Z M 87.6 75.1 L 87.6 26.4 A 3.713 3.713 0 0 1 87.71 25.471 A 2.596 2.596 0 0 1 88.45 24.2 Q 89.3 23.4 90.6 23.4 Q 92 23.4 92.8 24.2 A 2.646 2.646 0 0 1 93.506 25.509 A 3.969 3.969 0 0 1 93.6 26.4 L 93.6 75.1 A 3.463 3.463 0 0 1 93.448 76.147 A 2.835 2.835 0 0 1 92.8 77.25 A 2.635 2.635 0 0 1 91.35 78.031 A 3.872 3.872 0 0 1 90.6 78.1 A 3.256 3.256 0 0 1 89.517 77.926 A 2.806 2.806 0 0 1 88.45 77.25 A 2.871 2.871 0 0 1 87.605 75.303 A 3.82 3.82 0 0 1 87.6 75.1 Z M 93.6 44.7 Q 93.6 40 95.8 36.35 Q 98 32.7 101.9 30.6 Q 105.8 28.5 110.8 28.5 A 25.333 25.333 0 0 1 112.504 28.555 A 19.022 19.022 0 0 1 114.25 28.75 A 9.451 9.451 0 0 0 114.849 28.828 Q 116.019 28.94 116.9 28.7 A 1.662 1.662 0 0 0 117.647 28.274 Q 117.912 28.011 118.085 27.61 A 3.531 3.531 0 0 0 118.3 26.9 Q 118.683 25.137 117.539 24.197 A 3.457 3.457 0 0 0 116.7 23.7 Q 115.248 23.078 112.984 22.886 A 25.929 25.929 0 0 0 110.8 22.8 Q 105.2 22.8 100.6 25.6 A 20.954 20.954 0 0 0 98.147 27.345 A 22.349 22.349 0 0 0 93.1 33.35 A 24.884 24.884 0 0 0 91.063 37.785 A 29.399 29.399 0 0 0 89.6 44.7 L 93.6 44.7 Z M 268.2 75.1 L 268.2 26.4 A 3.713 3.713 0 0 1 268.31 25.471 A 2.596 2.596 0 0 1 269.05 24.2 Q 269.9 23.4 271.2 23.4 Q 272.6 23.4 273.4 24.2 A 2.646 2.646 0 0 1 274.106 25.509 A 3.969 3.969 0 0 1 274.2 26.4 L 274.2 75.1 A 3.463 3.463 0 0 1 274.048 76.147 A 2.835 2.835 0 0 1 273.4 77.25 A 2.635 2.635 0 0 1 271.95 78.031 A 3.872 3.872 0 0 1 271.2 78.1 A 3.256 3.256 0 0 1 270.117 77.926 A 2.806 2.806 0 0 1 269.05 77.25 A 2.871 2.871 0 0 1 268.205 75.303 A 3.82 3.82 0 0 1 268.2 75.1 Z M 267.892 10.592 A 5.392 5.392 0 0 1 267.85 10.55 Q 266.5 9.2 266.5 7.2 A 5.78 5.78 0 0 1 266.653 5.83 A 3.681 3.681 0 0 1 267.95 3.75 Q 269.4 2.6 271.2 2.6 A 4.873 4.873 0 0 1 274.03 3.512 A 6.201 6.201 0 0 1 274.35 3.75 A 3.691 3.691 0 0 1 275.658 5.875 A 5.826 5.826 0 0 1 275.8 7.2 Q 275.8 9.2 274.45 10.55 Q 273.1 11.9 271.1 11.9 A 4.424 4.424 0 0 1 267.892 10.592 Z" vector-effect="non-scaling-stroke"/></g></svg>